<svg height="512" viewBox="0 0 64 64" width="512" xmlns="http://www.w3.org/2000/svg"><path d="m26 29h12v10h-12z"/><path d="m54 29v-9h-2v8h-8v2h9a1 1 0 0 0 1-1z"/><path d="m52 44h2v-9a1 1 0 0 0 -1-1h-9v2h8z"/><path d="m12 20h-2v9a1 1 0 0 0 1 1h9v-2h-8z"/><path d="m10 35v9h2v-8h8v-2h-9a1 1 0 0 0 -1 1z"/><path d="m22 39h2v-11a1 1 0 0 1 1-1h14a1 1 0 0 1 1 1v11h2v-14h-20z"/><path d="m32 19.437-6.89 3.563h13.78z"/><path d="m53.707 8.293.293.293v-4.586h-2v4.586l.293-.293a1 1 0 0 1 1.414 0z"/><path d="m59 4h-3v7a1 1 0 0 1 -1.707.707l-1.293-1.293-1.293 1.293a1 1 0 0 1 -1.707-.707v-7h-3a1 1 0 0 0 -1 1v12a1 1 0 0 0 1 1h12a1 1 0 0 0 1-1v-12a1 1 0 0 0 -1-1z"/><path d="m11.707 8.293.293.293v-4.586h-2v4.586l.293-.293a1 1 0 0 1 1.414 0z"/><path d="m5 18h12a1 1 0 0 0 1-1v-12a1 1 0 0 0 -1-1h-3v7a1 1 0 0 1 -1.707.707l-1.293-1.293-1.293 1.293a1 1 0 0 1 -1.707-.707v-7h-3a1 1 0 0 0 -1 1v12a1 1 0 0 0 1 1z"/><path d="m52 50.586.293-.293a1 1 0 0 1 1.414 0l.293.293v-4.586h-2z"/><path d="m59 46h-3v7a1 1 0 0 1 -1.707.707l-1.293-1.293-1.293 1.293a1 1 0 0 1 -1.707-.707v-7h-3a1 1 0 0 0 -1 1v12a1 1 0 0 0 1 1h12a1 1 0 0 0 1-1v-12a1 1 0 0 0 -1-1z"/><path d="m17 46h-3v7a1 1 0 0 1 -1.707.707l-1.293-1.293-1.293 1.293a1 1 0 0 1 -1.707-.707v-7h-3a1 1 0 0 0 -1 1v12a1 1 0 0 0 1 1h12a1 1 0 0 0 1-1v-12a1 1 0 0 0 -1-1z"/><path d="m11.707 50.293.293.293v-4.586h-2v4.586l.293-.293a1 1 0 0 1 1.414 0z"/></svg>